<?xml version="1.0" encoding="utf-8"?>
<!-- Generator: Adobe Illustrator 22.1.0, SVG Export Plug-In . SVG Version: 6.00 Build 0)  -->
<svg version="1.1" xmlns="http://www.w3.org/2000/svg" xmlns:xlink="http://www.w3.org/1999/xlink" x="0px" y="0px"
	 viewBox="0 0 182 182" style="enable-background:new 0 0 182 182;" xml:space="preserve">
<style type="text/css">
	.st0{fill:url(#SVGID_1_);}
	.st1{fill:#F6F6F6;}
	.st2{fill:#23272A;}
</style>
<g id="Portal">
	<radialGradient id="SVGID_1_" cx="91" cy="91" r="91" gradientUnits="userSpaceOnUse">
		<stop  offset="0" style="stop-color:#720094"/>
		<stop  offset="0.2187" style="stop-color:#780099"/>
		<stop  offset="0.5" style="stop-color:#8800A9"/>
		<stop  offset="0.8141" style="stop-color:#A200C2"/>
		<stop  offset="1" style="stop-color:#B500D4"/>
	</radialGradient>
	<circle class="st0" cx="91" cy="91" r="91"/>
</g>
<g id="Skull">
	<g id="Isolation_Mode">
		<path class="st1" d="M80.5,139.6c-0.5-0.2-2.2-0.7-3.7-1c-2.6-0.6-2.8-1-2.8-5.5c0-5.6-0.7-6.4-7.5-8c-6-1.4-7.6-2.5-10.4-7.1
			c-3.1-5.2-2.7-10.4,1.9-22.5c5.8-15.3,5.3-24.8-1.3-23.1c-2.5,0.6-2.7,1-2.7,6.1c0,6-2.6,13.9-4.2,12.9
			c-1.2-0.8-0.3-13.3,1.4-20.4C55.7,52.4,70,42,91,42c17.3,0,29.8,6.8,36.3,19.7c3.7,7.2,6.8,25.5,5,28.8c-1.5,2.6-4.3-5.3-4.3-12
			c0-5.1-0.2-5.5-2.7-6.1c-6.6-1.7-7.1,7.8-1.3,23.1c2.3,6,4,12.3,4,14.6c0,7.6-4.6,13-12.5,15c-6.8,1.6-7.5,2.4-7.5,7.9
			c0,3.6-0.4,5-1.7,5.5C104.4,139.3,82.2,140.2,80.5,139.6z"/>
	</g>
	<path class="st2" d="M105.7,145.7c8-1.7,10.3-3.7,10.3-9.2c0-4.1,0.1-4.2,4.3-5.4c2.3-0.7,5.6-2.4,7.3-3.7
		c4.2-3.1,8.4-11.6,8.4-16.8c0-2.3,1-6.6,2.2-9.6c1.7-4.4,2.1-7.6,2.1-16c0.1-21.3-7.5-37.2-21.5-45.4c-16.4-9.6-44.5-8.4-59.6,2.7
		C44,53.5,37,81,44,101.6c1.1,3.2,2,7.4,2,9.4c0,8.5,8.4,18.9,16.5,20.4c3.4,0.7,3.5,0.9,3.5,5c0,5.5,2.2,7.6,9.8,9.2
		S98,147.3,105.7,145.7z M80.5,139.6c-0.5-0.2-2.2-0.7-3.7-1c-2.6-0.6-2.8-1-2.8-5.5c0-5.6-0.7-6.4-7.5-8c-6-1.4-7.6-2.5-10.4-7.1
		c-3.1-5.2-2.7-10.4,1.9-22.5c5.8-15.3,5.3-24.8-1.3-23.1c-2.5,0.6-2.7,1-2.7,6.1c0,6-2.6,13.9-4.2,12.9c-1.2-0.8-0.3-13.3,1.4-20.4
		C55.7,52.4,70,42,91,42c17.3,0,29.8,6.8,36.3,19.7c3.7,7.2,6.8,25.5,5,28.8c-1.5,2.6-4.3-5.3-4.3-12c0-5.1-0.2-5.5-2.7-6.1
		c-6.6-1.7-7.1,7.8-1.3,23.1c2.3,6,4,12.3,4,14.6c0,7.6-4.6,13-12.5,15c-6.8,1.6-7.5,2.4-7.5,7.9c0,3.6-0.4,5-1.7,5.5
		C104.4,139.3,82.2,140.2,80.5,139.6z M96.8,125.8c1.5-1.5,1.5-4.1,0.2-9c-1.2-4.3-4-6.3-7.7-5.3c-4.1,1-7.1,11.3-4.1,14.3
		C86.8,127.4,95.2,127.4,96.8,125.8z M78.3,111.9c5.2-2.3,7.2-10.1,4.2-15.9c-3.3-6.4-17.6-5.7-21,1.1c-2.5,4.8-1.9,8.7,1.9,12.5
		c2.9,2.9,4.1,3.4,8,3.4C73.9,113,77,112.5,78.3,111.9z M117.9,110.4c5.6-4.7,5-13.8-1.2-17c-3.2-1.7-9.8-2.2-13.5-1
		c-4.5,1.5-6.7,10.3-3.8,15.5C102.5,113.5,112.6,114.9,117.9,110.4z"/>
</g>
</svg>
